<?xml version="1.0" encoding="UTF-8"?>
<svg id="Layer_1" xmlns="http://www.w3.org/2000/svg" version="1.1" viewBox="0 0 500 273.3">
  <!-- Generator: Adobe Illustrator 29.8.1, SVG Export Plug-In . SVG Version: 2.1.1 Build 2)  -->
  <defs>
    <style>
      .st0 {
        fill: #133d8d;
      }

      .st1 {
        fill: #d0d2d3;
      }
    </style>
  </defs>
  <path class="st0" d="M86.5,164.5v-44.5h19.2c5.2,0,9.1.9,12,2.5s5.2,4.1,6.7,7.3c1.7,3.2,2.6,7,2.6,11.6s-.9,8.4-2.5,11.8-3.9,6.3-7,8.3-7.3,3.1-12.7,3.1h-18.4,0ZM95.8,158.2h6.9c3.6,0,6.4-.6,8.3-1.7,2-1.1,3.4-3.1,4.5-5.6,1.1-2.7,1.7-5.6,1.7-9s-.5-5.9-1.6-8.4c-1.1-2.5-2.6-4.3-4.4-5.5-2-1.2-5.2-1.9-9.7-1.9h-5.5v32h0Z"/>
  <rect class="st0" x="135.4" y="120" width="9.2" height="44.5"/>
  <path class="st0" d="M191.3,163.5c-3.9,1-6.9,1.6-8.6,1.9-1.9.3-3.7.3-5.8.3-8.4,0-14.4-2.2-18.2-6.7-3.8-4.4-5.6-10-5.6-16.7s.9-8.4,2.5-12,4.2-6.3,7.5-8.4c3.3-2,8-3.1,13.7-3.1s9.7.6,14.5,1.7v7.3c-4.1-1.4-6.9-2.2-8.7-2.5-1.7-.3-3.4-.3-5-.3-5.2,0-9,1.7-11.2,5-2.3,3.3-3.4,7.4-3.4,12.2s1.4,9.4,4.1,12.5,6.5,4.7,11.4,4.7,2.3,0,3.7-.5v-14.7h9.2v19.2h0,0Z"/>
  <rect class="st0" x="201.6" y="120" width="9.2" height="44.5"/>
  <path class="st0" d="M219.6,164.1v-7.6c3.4,1.5,6.1,2.3,7.8,2.6s3.3.3,4.7.3c2.6,0,4.5-.6,5.8-1.7s2-2.6,2-4.2-.3-2.3-1.1-3.3c-.8-1-2.5-2.2-5.3-3.8l-3-1.6c-4.3-2.3-7.2-4.5-8.7-6.7-1.5-2-2.3-4.4-2.3-7s1.2-6.1,3.8-8.6c2.6-2.3,6.3-3.6,11.1-3.6s7.6.5,12,1.5v7.2c-4.5-1.7-8.3-2.6-10.9-2.6s-3.9.5-5.2,1.5c-1.1,1-1.7,2.1-1.7,3.4s.3,2,1.1,3c.8.9,2.5,2.1,5.2,3.7l3.2,1.7c5,2.7,8,5.2,9.4,7.2,1.4,2.1,2,4.3,2,6.9s-1.4,6.7-4.2,9.4c-2.8,2.6-7.3,3.8-13.3,3.8s-7.8-.5-12.6-1.5"/>
  <polygon class="st0" points="257.3 164.5 257.3 120 285.7 120 285.7 126.2 266.5 126.2 266.5 138.5 282.4 138.5 282.4 144.7 266.5 144.7 266.5 158.2 287.2 158.2 287.2 164.5 257.3 164.5"/>
  <polygon class="st0" points="294.3 164.5 294.3 120 302.4 120 323 150.4 323 120 330.5 120 330.5 164.5 322.1 164.5 301.6 134.1 301.6 164.5 294.3 164.5"/>
  <path class="st0" d="M339.1,164.1v-7.6c3.4,1.5,6.1,2.3,7.8,2.6s3.3.3,4.7.3c2.6,0,4.5-.6,5.8-1.7s2-2.6,2-4.2-.3-2.3-1.1-3.3-2.5-2.2-5.3-3.8l-3-1.6c-4.3-2.3-7.2-4.5-8.7-6.7-1.5-2-2.3-4.4-2.3-7s1.2-6.1,3.8-8.6c2.6-2.3,6.3-3.6,11.1-3.6s7.6.5,12,1.5v7.2c-4.5-1.7-8.3-2.6-10.9-2.6s-3.9.5-5.2,1.5-1.7,2.1-1.7,3.4.3,2,1.1,3c.8.9,2.5,2.1,5.2,3.7l3.2,1.7c5,2.7,8,5.2,9.4,7.2,1.4,2.1,2,4.3,2,6.9s-1.4,6.7-4.2,9.4-7.3,3.8-13.3,3.8-7.8-.5-12.6-1.5"/>
  <polygon class="st0" points="376.8 164.5 376.8 120 405.3 120 405.3 126.2 386 126.2 386 138.5 401.9 138.5 401.9 144.7 386 144.7 386 158.2 406.6 158.2 406.6 164.5 376.8 164.5"/>
  <path class="st1" d="M123,96.1c4.3,4.4,8.4,8.3,13.8,10-5.8,1.2-8.4,0-11.4-2.8s-2.5-7.2-2.5-7.2"/>
  <path class="st0" d="M140,105c1.7,1.1,3.8,2.6,6.5,4.3,2.7,1.6,7.3,3.4,7.3,3.4,0,0-3,3.1-8.1,2.8-11.2-.5-18.6-10.6-20.4-12.7,3.2,2.7,7.8,5,14.8,2"/>
  <path class="st0" d="M221.3,96.4c-5.6,2.5-10.6,5-14.2,9.4,1-5.9,2.7-7.9,6.7-9.6,3.8-1.7,7.5.3,7.5.3"/>
  <path class="st1" d="M206.9,109.2c-1.6,1.1-3.8,2.7-6.3,4.5-2.5,2-5.8,5.6-5.8,5.6,0,0-1.9-3.8,0-8.6,4.4-10.3,16.5-13.8,19-14.8-3.7,2.1-7.5,5.4-7.2,13.1"/>
  <path d="M407.9,120v-3.1h-1.2v-.5h3v.5h-1.2v3.1h-.6,0,0ZM410.1,120v-3.7h.9l.9,3,.9-3h.9v3.7h-.5v-3.1l-1,3.1h-.5l-1-3.1v3.1h-.6.3Z"/>
</svg>