<?xml version="1.0" encoding="UTF-8"?>
<svg id="Layer_1" xmlns="http://www.w3.org/2000/svg" version="1.1" viewBox="0 0 500 273.3">
  <!-- Generator: Adobe Illustrator 29.8.1, SVG Export Plug-In . SVG Version: 2.1.1 Build 2)  -->
  <defs>
    <style>
      .st0 {
        fill: #f37b57;
      }
    </style>
  </defs>
  <circle class="st0" cx="197.1" cy="150.6" r="7"/>
  <g>
    <path class="st0" d="M378.1,133.5c0-3.2-2.6-5.7-5.7-5.7s-5.7,2.6-5.7,5.7v17.2c0,6.1-5.1,11.2-11.4,11.2s-11.2-5-11.4-11.1v-17.4c0-3.2-2.6-5.7-5.7-5.7s-5.7,2.6-5.7,5.7v17.4c0,12.5,10.2,22.5,22.7,22.5s22.5-10,22.7-22.5h0v-17.4h.3,0Z"/>
    <circle class="st0" cx="278.7" cy="167.7" r="5.6"/>
    <path class="st0" d="M144.6,128c4.2,0,7.9,1.1,11.4,3.1v-25.4c0-3.2,2.6-5.7,5.7-5.7s5.7,2.6,5.7,5.7v45c0,12.6-10.2,22.7-22.7,22.7s-22.7-10.2-22.7-22.7,10.2-22.7,22.7-22.7c0,0,0,0,0,0ZM144.6,139.3c-6.3,0-11.4,5-11.4,11.4s5,11.4,11.4,11.4,11.4-5,11.4-11.4-5-11.4-11.4-11.4ZM249.5,173.3c-12.6,0-22.7-10.2-22.7-22.7v-45c0-3.2,2.6-5.7,5.7-5.7s5.7,2.6,5.7,5.7v22.2h22.2c3.2,0,5.7,2.6,5.7,5.7s-2.6,5.7-5.7,5.7h-22.2v11.4c0,6.3,5,11.4,11.4,11.4h10.9c3.2,0,5.7,2.6,5.7,5.7s-2.6,5.7-5.7,5.7h-11ZM197.1,128c12.6,0,22.7,10.2,22.7,22.7s-10.2,22.7-22.7,22.7-22.7-10.2-22.7-22.7,10.2-22.7,22.7-22.7ZM197.1,139.3c-6.3,0-11.4,5-11.4,11.4s5,11.4,11.4,11.4,11.4-5,11.4-11.4-5-11.4-11.4-11.4Z"/>
    <path class="st0" d="M322.8,128.9c-2.7-1.5-6.1-.7-7.8,2.1l-14.7,25.4-14.7-25.4c-1.5-2.7-5-3.7-7.8-2.1h0c-2.7,1.5-3.7,5-2.1,7.8h0l19.6,33.8c1,1.8,2.8,2.8,4.7,2.8h.4c1.9,0,3.7-1,4.7-2.8l19.6-33.8c1.5-2.7.7-6.1-2-7.8h.2Z"/>
  </g>
</svg>