<?xml version="1.0" encoding="UTF-8"?>
<svg id="Layer_1" xmlns="http://www.w3.org/2000/svg" version="1.1" viewBox="0 0 500 273.3">
  <!-- Generator: Adobe Illustrator 29.8.1, SVG Export Plug-In . SVG Version: 2.1.1 Build 2)  -->
  <defs>
    <style>
      .st0 {
        fill: #322341;
      }

      .st1 {
        fill: #6432dc;
      }
    </style>
  </defs>
  <path class="st0" d="M220.5,132.8v15.5h-9.3v-15.3c0-4.4-2.2-6-4.7-6s-5,2-5,7.1v14.2h-9.3v-15.1c0-4.4-2.2-6.1-4.5-6.1s-5.1,1.3-5.1,6.1v15.1h-9.3v-28.9h9.3v5.7c.6-4.4,4.9-6.3,7.9-6.3,4.3,0,7.5,2,9.3,5.5,2-3.8,6.5-5.5,9.6-5.5,7.3,0,11,5.3,11,14.2h0,0ZM247,119.5h9.3v28.9h-9.3v-3.6c-2,2.6-5.6,4.4-9.3,4.4-8.1,0-14-6.1-14-15.2s5.7-15.2,14.1-15.2,7.1,1.5,9.2,4.2v-3.5h0ZM246.6,134c0-3.8-3-6.7-6.7-6.7s-6.7,3-6.7,6.7,2.8,6.7,6.7,6.7,6.7-3.1,6.7-6.7ZM283.6,119.6l-2.2,8.7c-1.9-1.1-3.2-1.2-4.2-1.2-3.6,0-6.6,3-6.6,11.6v9.7h-9.3v-28.9h9.2v6.1c1.8-4.8,5.3-6.8,8.7-6.8s2.9,0,4.4.8h0ZM315.9,148.4h-11.2l-9-11.7v11.7h-9.3v-44.7h9.3v23.8l6.2-8.1h11.6l-11,12.8,13.4,16.1h0ZM345.4,136.6h-21.4c1,2.8,3.3,4.5,6.8,4.5s5.6-1.3,7.3-3l4.8,6c-2.9,3.1-7.9,5-12.8,5-9.3,0-15.8-6.2-15.8-15.1s7.3-15.3,15.7-15.3,15.3,5.8,15.3,14.6,0,1.9,0,3.2h0v.2ZM336.3,131.3c0-2.9-2.6-4.8-6.1-4.8s-5.5,1.3-6.3,4.8h12.4ZM368,119.5v6.9h-6.1v22h-9.3v-22h-5.4v-6.9h5.4v-10.3h9.3v10.3s6.1,0,6.1,0ZM370.7,109.8c0-3,2.6-5.4,5.7-5.4s5.6,2.3,5.6,5.4-2.5,5.4-5.6,5.4-5.7-2.4-5.7-5.4ZM371.9,148.4v-28.9h9.3v28.9h-9.3ZM415.5,132.8v15.5h-9.3v-14.9c0-4.4-2.8-6.1-5.1-6.1s-5.6,1.3-5.6,6.1v15.1h-9.3v-28.9h9.3v5.3c1.1-4.1,5.6-6,8.4-6,7.8,0,11.6,5.3,11.6,14.2v-.2h0ZM441.8,119.5h9.2v25.4c0,12.3-6.5,18.4-17.1,18.4s-12.2-3.8-14.5-9.3l7.6-3c1.1,2.3,3.8,4.3,6.9,4.3,4.8,0,7.9-2.6,7.9-9.3v-.8c-2.2,2.6-6.1,3.9-9.1,3.9-7.2,0-14.2-6-14.2-15.2s6.8-15.2,14.2-15.2,6.8,1.2,9.1,3.9v-3.1h0,0ZM441.4,134c0-3.7-3.1-6.7-6.7-6.7s-6.7,3-6.7,6.7,3.1,6.7,6.7,6.7,6.7-3,6.7-6.7ZM182.7,156.5h1.1l-4.7,15.2h-1.2l-4.7-15.2h1.1l4.2,13.9,4.2-13.9h0ZM185.9,157.5c0-.5.4-.8.8-.8s.8.4.8.8-.4.8-.8.8-.8-.4-.8-.8ZM186.3,171.7v-10.3h1v10.3h-1ZM204.9,161.3v10.3h-1v-9.4h-5.3v9.4h-1v-9.4h-2v-.8h2v-1.2c0-2.4,1-4.4,3.6-4.4h.5v1h-.4c-2,0-2.6,1.5-2.6,3.3v1.3h6.1,0v-.2ZM205.2,157.5c0,.5-.4.8-1,.8s-.8-.4-.8-.8.4-.8.8-.8,1,.4,1,.8ZM217.7,165.6v6.1h-1v-6.1c0-2.2-1.4-3.6-3.3-3.6s-3.6,1.1-3.7,3.8v5.8h-1v-10.3h1v2c.6-1.8,2.3-2.4,3.7-2.4,2.4,0,4.2,1.8,4.2,4.5h0v.3ZM230.2,155.8h1v15.9h-1v-2.3c-.8,1.5-2.5,2.5-4.5,2.5-3,0-5.4-2.4-5.4-5.5s2.4-5.5,5.4-5.5,3.6,1.1,4.5,2.5v-7.9h0v.2ZM230.2,166.6c0-2.6-2-4.5-4.4-4.5s-4.4,2-4.4,4.4,2,4.5,4.4,4.5,4.4-1.9,4.4-4.4ZM244.7,166.9h-9.4c.2,2.4,1.9,4.1,4.3,4.1s2.9-.8,3.7-2l.8.5c-1,1.7-2.6,2.5-4.5,2.5-2.9,0-5.3-2.2-5.3-5.5s2.3-5.4,5.3-5.4,5.1,2,5.1,5.4v.5h0v-.2ZM243.6,166.1c0-2.4-1.9-4.1-4.1-4.1s-4.1,1.5-4.3,4.1h8.4,0ZM253.6,161.3l-.2,1c-.5-.2-1-.2-1.3-.2-2.8,0-3.5,3.2-3.5,5.6v3.9h-1v-10.3h1v2.8c.5-1.8,1.7-3.1,3.5-3.1s1.1,0,1.5.2v.2h0ZM270.1,155.8h1v15.9h-1v-2.3c-.8,1.5-2.5,2.5-4.5,2.5-3,0-5.4-2.4-5.4-5.5s2.4-5.5,5.4-5.5,3.6,1.1,4.5,2.5v-7.9h0v.2ZM270.1,166.6c0-2.6-2-4.5-4.4-4.5s-4.4,2-4.4,4.4,2,4.5,4.4,4.5,4.4-1.9,4.4-4.4ZM274.5,157.5c0-.5.4-.8.8-.8s.8.4.8.8-.4.8-.8.8-.8-.4-.8-.8ZM274.8,171.7v-10.3h1v10.3h-1ZM288.6,161.3h1v9c0,5.1-2.3,6.6-5.6,6.6s-3.3-.7-4.4-2.3l.8-.5c.8,1.3,2.2,1.9,3.5,1.9,2.8,0,4.7-1.3,4.7-5.7v-1c-.8,1.5-2.5,2.5-4.5,2.5-3,0-5.4-2.4-5.4-5.5s2.4-5.5,5.4-5.5,3.6,1.1,4.5,2.5v-2.3h0v.2ZM288.6,166.6c0-2.6-2-4.5-4.4-4.5s-4.4,2-4.4,4.4,2,4.5,4.4,4.5,4.4-1.9,4.4-4.4ZM307.3,171.7h-1v-14.9h-2.5c-2,0-2.6,1.5-2.6,3.3v1.3h2.8v.8h-2.8v9.4h-1v-9.4h-2v-.8h2v-1.2c0-2.4,1-4.4,3.6-4.4h3.6v15.9h0ZM320.7,166.9h-9.4c.2,2.4,1.9,4.1,4.3,4.1s2.9-.8,3.7-2l.8.5c-1,1.7-2.6,2.5-4.5,2.5-2.9,0-5.3-2.2-5.3-5.5s2.3-5.4,5.3-5.4,5.1,2,5.1,5.4v.5h0v-.2ZM319.6,166.1c0-2.4-1.9-4.1-4.1-4.1s-4.1,1.5-4.3,4.1h8.4ZM329.6,161.3l-.2,1c-.5-.2-1-.2-1.3-.2-2.8,0-3.5,3.2-3.5,5.6v3.9h-1v-10.3h1v2.8c.5-1.8,1.7-3.1,3.5-3.1s1.1,0,1.5.2v.2h0ZM340.5,166.9h-9.4c.2,2.4,1.9,4.1,4.3,4.1s2.9-.8,3.7-2l.8.5c-1,1.7-2.6,2.5-4.5,2.5-2.9,0-5.3-2.2-5.3-5.5s2.3-5.4,5.3-5.4,5.1,2,5.1,5.4v.5h0v-.2ZM339.6,166.1c0-2.4-1.9-4.1-4.1-4.1s-4.1,1.5-4.3,4.1h8.4ZM357.5,171.7h-1.4l-5.7-5.5v5.5h-1v-15.9h1v9.9l4.2-4.2h1.4l-4.5,4.5,6,5.8h0,0ZM367.1,161.3h1v10.3h-1v-2c-.6,1.7-2.3,2.3-3.7,2.3-2.4,0-4.3-1.8-4.3-4.5v-6.1h1v6.1c0,2.2,1.4,3.6,3.3,3.6s3.6-1.1,3.7-3.8v-5.8h0v-.2ZM380.8,165.6v6.1h-1v-6.1c0-2.2-1.4-3.6-3.3-3.6s-3.6,1.1-3.7,3.8v5.8h-1v-10.3h1v2c.6-1.8,2.3-2.4,3.7-2.4,2.4,0,4.2,1.8,4.2,4.5h0v.3ZM393.4,155.8h1v15.9h-1v-2.3c-.8,1.5-2.5,2.5-4.5,2.5-3,0-5.4-2.4-5.4-5.5s2.4-5.5,5.4-5.5,3.6,1.1,4.5,2.5v-7.9h0v.2ZM393.4,166.6c0-2.6-2-4.5-4.4-4.5s-4.4,2-4.4,4.4,2,4.5,4.4,4.5,4.4-1.9,4.4-4.4ZM407.9,166.9h-9.4c.2,2.4,1.9,4.1,4.3,4.1s2.9-.8,3.7-2l.8.5c-1,1.7-2.6,2.5-4.5,2.5-2.9,0-5.3-2.2-5.3-5.5s2.3-5.4,5.3-5.4,5.1,2,5.1,5.4v.5h0v-.2ZM406.8,166.1c0-2.4-1.9-4.1-4.1-4.1s-4.1,1.5-4.3,4.1h8.4ZM416.7,161.3l-.2,1c-.5-.2-1-.2-1.3-.2-2.8,0-3.5,3.2-3.5,5.6v3.9h-1v-10.3h1v2.8c.5-1.8,1.7-3.1,3.5-3.1s1.1,0,1.5.2v.2h0Z"/>
  <path class="st1" d="M112.7,100h18.4v28l22.6-28h18.2l-23.8,29.5,14.9,18.5h-21.7l-10.1-12.5v14.8l-18.4,22.8v-73.1h-.2ZM105.1,100h-18.4v28l-22.6-28h-18.2l23.8,29.5-14.9,18.5h21.7l10.1-12.5v14.8l18.4,22.8v-73.1h.2Z"/>
</svg>