<?xml version="1.0" encoding="UTF-8"?>
<svg id="Layer_1" xmlns="http://www.w3.org/2000/svg" version="1.1" viewBox="0 0 500 273.3">
  <!-- Generator: Adobe Illustrator 29.8.1, SVG Export Plug-In . SVG Version: 2.1.1 Build 2)  -->
  <defs>
    <style>
      .st0 {
        fill: #009eec;
      }

      .st0, .st1 {
        fill-rule: evenodd;
      }
    </style>
  </defs>
  <path class="st1" d="M432,168.3h-12.2l-3.1-15.4-3.4,15.4h-10.3l11.5-52.4h10.5l-5.1,23.5,8.3-13.5h10.8l-11.8,18.5,4.8,24M391.9,160.3l5.9-26.4c.4-1.1,0-1.7-1.3-1.7s-1.9.6-2.2,1.9l-5.9,26.3c-.4,1.3,0,2.1,1.3,2.1s2-.9,2.2-2.1h0ZM400.5,168.3h-7.9l-.6-1.3c-2.2,1.1-4.3,1.9-6.7,1.9s-4.8-.6-6.3-1.9c-1.6-1.1-2.1-2.9-1.7-5l6.8-30.5c.4-1.9,1.3-3.2,3.1-4.5,1.7-1,3.6-1.6,5.9-1.6s4.8.6,6.1,1.6l2.7-11.1h10.3l-11.5,52.6h-.2,0ZM353.9,120.8h-2.1l1.3-6.1-2.7,6.1h-1.6v-6.1c0,0-1.3,6.1-1.3,6.1h-1.9l2.4-10.7h2.9v5.5c0,0,2.1-5.5,2.1-5.5h3.1l-2.5,10.7h.2ZM347.3,111.6h-1.1l-2.1,9.2h-2.2l1.9-9.2h-1.1l.4-1.3h4.8l-.4,1.3h-.2ZM347,167.9h-12.4l-3.1-15.4-3.4,15.4h-10.5l11.8-52.8h10.5l-5.1,23.7,8.4-13.5h10.8l-11.9,18.6,5,24h0ZM325.6,125.2l-17.5,42.6c-1.9,4.3-3.6,7-5.1,7.9-1.6,1-3.8,1.3-6.2,1.3h-7.3l1.3-5.7c2.8,0,4.5,0,5.1-.6.7,0,1.1-1,1.6-2.4,0-1.1.4-8.3,0-20.7l-.6-22.4h10.7l-.7,22.6,8.4-22.6h10.3,0,0ZM291.9,143h-10.5l2.1-9.2c.4-1.1,0-1.9-1.3-1.9s-1.9.6-2.2,1.9l-7.5,34.3h-10.7l9.5-42.7h10.5l-.4,1.3c1.7-1,4-1.7,6.8-1.7s3.8.6,5,1.7c1.3,1,1.7,2.7,1.3,4.5l-2.7,11.8h0ZM269.6,122h-6.6l-10.2,46h-11.8l10.2-46h-6.3l1.3-6.8h24.7l-1.6,6.8h.2ZM238.4,143h-10.5l2.1-9.2c.4-1.1,0-1.9-1.3-1.9s-1.9.6-2.2,1.9l-7.5,34.3h-10.5l9.4-42.7h10.5l-.4,1.3c1.7-1,4-1.7,6.8-1.7s3.8.6,5,1.7c1.3,1,1.7,2.7,1.3,4.5l-2.8,11.8h0ZM200.6,143.4l2.2-9.8c0-1.3,0-2.1-1.3-2.1s-2.1.7-2.4,2.1l-2,9.8h3.6,0ZM209.8,150h-14.3l-2.1,10c-.4,1.3,0,2.2,1.1,2.2s2.1-.9,2.4-2.2l1.9-8.6h10.5l-1.9,8.6c-1.3,5.8-6.1,8.8-14.3,8.8s-11.8-3-10.3-9l5.7-25.6c1.3-6.1,6.1-9.1,14.3-9.1s11.8,2.9,10.5,8.8l-3.6,16.3h0v-.2ZM158,150.9h10.5l-1.9,9c-.4,1.3,0,2.2,1.1,2.2s2.1-1.6,2.8-4.3c.7-3.6.6-5.8-.7-7-4.8-2.8-7.8-4.8-8.6-6.1-.9-1-1-2.8-.6-5.1l1.1-5.7c1.3-6.1,6.2-9.1,14.3-9.1s11.3,2.9,10,8.8l-1.7,8.4h-10.3l1.3-5.1c.7-3.6.6-5.3-.9-5.3s-2.2,1-2.8,3.2c-.6,2.4-.6,4.1,0,5.3s3.1,3.2,8.3,6.1c2.1,1.9,2.8,4.1,2.1,7l-1.3,6.3c-1.3,6.1-6.2,9-14.4,9s-11.5-2.9-10.3-8.8l2.1-8.9h-.2v.2ZM143.1,160.1l2.4-11.2c-2.7.7-4,1.7-4.3,3.2l-1.7,7.9c-.4,1.1,0,1.9,1.3,1.9s1.8-.7,2.1-1.9h.2ZM151.9,167.9h-9.3l.4-1.6c-1.1,1.3-3.6,2.2-7.2,2.2-5.9,0-8.3-2.2-7.2-6.7l1.9-8.6c.6-2.1,1.6-3.6,3.2-5.1,1.7-1.3,4.8-3,9.6-5.3,2.7-1.1,4.1-2.2,4.3-2.9l1.3-6.3c.4-1.3,0-2.1-1.3-2.1s-2.4,1.7-3.2,5.1c0,.6,0,1.6-.4,2.8,0,1.1-.4,2.1-.6,2.8h-10.2l1.9-8.6c1.1-5.8,6.1-8.8,14.4-8.8s11.1,3,9.8,9l-7.5,34.2h0,0ZM125.5,167.9h-22l11.9-52.7h11.5l-10.1,46.1h10.2l-1.3,6.6h0Z"/>
  <path class="st0" d="M311.5,113c-71.6-33.5-305.3-15.1-229.2,50.6-106-52.1,114.7-107.8,229.2-50.6M362.9,136.6c5,0,8.9,4,8.9,8.9s-4,8.9-8.9,8.9-8.9-3.9-8.9-8.9,3.9-8.9,8.9-8.9Z"/>
</svg>