<?xml version="1.0" encoding="UTF-8"?>
<svg id="Layer_1" xmlns="http://www.w3.org/2000/svg" version="1.1" viewBox="0 0 500 273.3">
  <!-- Generator: Adobe Illustrator 29.8.1, SVG Export Plug-In . SVG Version: 2.1.1 Build 2)  -->
  <defs>
    <style>
      .st0 {
        isolation: isolate;
      }

      .st1 {
        fill: #a0f;
      }
    </style>
  </defs>
  <g class="st0">
    <g>
      <path class="st1" d="M121.5,150.2l-2.8,13.4h-10.3l2.8-13.4-8.4-25.2h11.8l1.9,7.4,1,3.8c.2.6.2.7.9,3.6h.4c.7-1.2,1.7-2.5,2.5-3.6l2.6-3.8,5.1-7.4h12l-19.5,25.2h0Z"/>
      <path class="st1" d="M168.6,125.9c3.4,1.7,5,4.2,5,8.4s-2.4,15.1-3.9,18.9c-1.7,4.6-4.1,7.3-8.1,8.9-2.8,1.2-6.5,1.8-12.4,1.8s-9.8-.7-12.2-3c-1.7-1.7-2.5-3.9-2.5-6.8s2.4-14.7,4.1-19c1.7-4.2,4-6.8,8.2-8.7,2.9-1.2,6-1.7,12.2-1.7s7.6.4,9.8,1.3h0ZM149.2,135.7c-1,1.2-1.2,1.8-2.5,8-.9,3.6-1.3,6.7-1.3,8,0,2.7,1.2,3.4,6.5,3.4s6.9-1.1,8.4-6.3c1-3.3,2.2-10.1,2.2-11.7,0-2.8-1.2-3.5-6.2-3.5s-5.7.5-7,2.2h0v-.2Z"/>
      <path class="st1" d="M214.7,125l-5.1,24.5c0,.5-.2.9-1.1,3.9-1.2,4.2-2.8,6.5-6,8.5-2.7,1.7-5.7,2.2-12.4,2.2s-9-.4-11.5-1.5c-2.5-1.2-3.9-3.3-3.9-6.3s.4-3.6.9-6l5.3-25.2h10.4l-5.4,25.2c-.2.7-.3,1.8-.3,2.3,0,1.9,1.5,2.5,6.2,2.5s6.1-.7,7-5.4l5.2-24.7h10.6Z"/>
      <path class="st1" d="M220.9,125h19.5c4.2,0,6.8.4,8.4,1.2,2.2,1.2,3.6,3.3,3.6,6,0,3.9-1.8,10.5-3.5,12.8-1.3,1.9-2.8,2.7-7,3.6v.4c3.6.2,5.6,1.9,5.6,5.1s0,1.3-.3,2.4l-1.6,7h-10.5l1.1-5.1c0-.7.2-1.6.2-2.2,0-2.1-1.1-2.9-3.5-2.9h-7.8l-2.2,10.3h-10.3l8.2-38.7h0v.2ZM235.4,144.6c2.6,0,3.9-.7,4.6-2.8.5-1.3,1.2-4.6,1.2-5.4,0-1.9-.7-2.5-3.9-2.5h-7.8l-2.2,10.8h8.2,0v-.2Z"/>
      <path class="st1" d="M278.1,154.7h16.2l-1.9,8.9h-26.6l8.2-38.7h10.3l-6.3,29.8Z"/>
      <path class="st1" d="M330.4,125.9c3.4,1.7,5,4.2,5,8.4s-2.4,15.1-3.9,18.9c-1.7,4.6-4.1,7.3-8.1,8.9-2.8,1.2-6.5,1.8-12.4,1.8s-9.8-.7-12.2-3c-1.7-1.7-2.5-3.9-2.5-6.8s2.4-14.7,4.1-19c1.7-4.2,4-6.8,8.2-8.7,2.9-1.2,6-1.7,12.2-1.7s7.6.4,9.8,1.3h0,0ZM311.2,135.7c-1,1.2-1.2,1.8-2.5,8-.9,3.6-1.3,6.7-1.3,8,0,2.7,1.2,3.4,6.5,3.4s6.9-1.1,8.4-6.3c1-3.3,2.2-10.1,2.2-11.7,0-2.8-1.2-3.5-6.2-3.5s-5.7.5-7,2.2h0v-.2Z"/>
      <path class="st1" d="M373.6,141.8l-.2,1.2c-1.1,5.3-1.7,8.6-1.9,9.7-1.3,5.5-3.9,8.5-8.2,10.2-2.3.9-5.7,1.2-12.4,1.2s-9.6-.6-12-2.7c-1.7-1.5-2.7-4.1-2.7-7s2.8-16.6,4.5-20.1c1.8-4,4.6-6.7,8.8-8.2,2.7-1,5.4-1.2,11.8-1.2s7.5.2,9.4.9c3.3,1.1,4.6,3.1,4.6,6.9s0,2.5-.5,4.6h-10.5v-.7c.2-2.2-1.2-2.9-5.5-2.9-6.5,0-8.1,1.2-9.6,7.4-1.3,6-1.9,9.4-1.9,10.9,0,2.6,1.6,3.6,5.9,3.6,6.3,0,7.9-1.1,8.8-6.4h-7.1l1.6-7.1h17.5-.2v-.2Z"/>
      <path class="st1" d="M409.5,125.9c3.4,1.7,5,4.2,5,8.4s-2.4,15.1-3.9,18.9c-1.7,4.6-4.1,7.3-8.1,8.9-2.8,1.2-6.5,1.8-12.4,1.8s-9.8-.7-12.2-3c-1.7-1.7-2.5-3.9-2.5-6.8s2.4-14.7,4.1-19c1.7-4.2,4-6.8,8.2-8.7,2.9-1.2,6-1.7,12.2-1.7s7.6.4,9.8,1.3h0,0ZM390.3,135.7c-1,1.2-1.2,1.8-2.5,8-.9,3.6-1.3,6.7-1.3,8,0,2.7,1.2,3.4,6.5,3.4s6.9-1.1,8.4-6.3c1-3.3,2.2-10.1,2.2-11.7,0-2.8-1.2-3.5-6.2-3.5s-5.7.5-7,2.2h0v-.2Z"/>
    </g>
  </g>
</svg>