<svg xmlns="http://www.w3.org/2000/svg" version="1.1" viewBox="0 0 500 130">
  <defs>
    <style>
      .cls-1 {
        fill: #fff5ff;
        stroke-width: 0px;
      }
    </style>
  </defs>
  <path class="cls-1" d="M480.9,8.9c.8.4,1.4,1,1.8,1.8.4.8.7,1.7.7,2.7s-.2,1.9-.7,2.7c-.4.8-1,1.4-1.8,1.8s-1.7.7-2.7.7-1.9-.2-2.7-.7-1.4-1-1.8-1.8c-.4-.8-.7-1.7-.7-2.7s.2-1.9.7-2.7c.4-.8,1-1.4,1.8-1.8s1.7-.7,2.7-.7,1.9.2,2.7.7ZM475.7,9.3c-.7.4-1.2.9-1.6,1.6-.4.7-.6,1.5-.6,2.4s.2,1.7.6,2.4c.4.7.9,1.3,1.6,1.6s1.5.6,2.4.6,1.7-.2,2.4-.6,1.2-.9,1.6-1.6.6-1.5.6-2.4-.2-1.7-.6-2.4-.9-1.3-1.6-1.6c-.7-.4-1.5-.6-2.4-.6s-1.8.2-2.4.6ZM476.6,10.4c-.5.3-.9.7-1.2,1.2s-.4,1.1-.4,1.8.1,1.3.4,1.8.7.9,1.2,1.2c.5.3,1,.4,1.6.4s1.4-.2,1.9-.6c.6-.4.9-.9,1.1-1.6h-1c-.2.5-.4.8-.8,1.1s-.8.4-1.3.4-1.2-.2-1.6-.7-.7-1.1-.7-1.9.2-1.5.7-2c.4-.5,1-.7,1.6-.7s.9.1,1.3.4c.4.2.6.6.8,1.1h1c-.2-.7-.6-1.2-1.1-1.6-.5-.4-1.2-.6-1.9-.6s-1.1.1-1.6.4ZM23.6,73.3l12.5-1.8-5.7,39.7,12.1-1.7-1.2,8.7-24.6,3.5,6.9-48.4ZM50.7,78.7c1-7.2,6-10.6,17.6-12.3,11.6-1.7,15.8.5,14.8,7.6l-4.2,29.6c-1,7.2-6,10.6-17.7,12.3-11.6,1.7-15.7-.5-14.7-7.7l4.2-29.6ZM70,76.5c.2-1.7-.5-2.1-2.9-1.8-2.4.3-3.3,1-3.6,2.7l-4.1,28.4c-.2,1.7.5,2.1,3,1.8,2.3-.3,3.2-1,3.5-2.7l4.1-28.4ZM89.4,63.9l15.4-2.2c13.5-1.9,16.8,0,15.5,9.1l-.8,5.8c-1,6.5-3.5,9.2-9.9,11.1h0c6.6.4,7.9,1.6,7.4,6.8l-1.9,13.2-12.5,1.8,2-13.9c.3-2.1-1-2.6-5.2-2l-2.1.3-2.4,16.7-12.5,1.8,6.9-48.4ZM98.5,85.5l2.4-.3c4.3-.6,5.4-1.5,5.9-5l1-7.3c.4-2.5-.6-3.5-3.4-3.1l-3.8.5-2.2,15.1ZM126.8,58.6l24-3.4-1.2,8.7-11.6,1.6-1.5,10.6,10.7-1.5-1.2,8.3-10.7,1.5-1.7,12.1,12.5-1.8-1.2,8.7-24.9,3.6,6.9-48.4ZM166.7,60.2h-.2s-5.9,41-5.9,41l-11.2,1.6,6.9-48.4,19.7-2.8.6,37.3h.2s11.5-39,11.5-39l19.7-2.8-6.9,48.4-11.3,1.6,6.2-40.9h-.2s-13.9,42-13.9,42l-14.3,2-1-40ZM290.5,35.3l12.5-1.8-6.9,48.4-12.5,1.8,6.9-48.4ZM308.3,32.7l18-2.6c9.8-1.4,13.3,1.5,12.2,9.8l-1.2,8.4c-1.7,11.3-5.5,14.9-17.3,16.6l-4.2.6-2,13.8-12.5,1.8,6.9-48.4ZM320.8,56.4c1.9-.3,2.9-1.4,3.3-4l1.7-11.6c.2-1.6-.4-1.9-2.5-1.6l-3.6.5-2.5,17.2,3.7-.5ZM350.2,62.1c-.6,4-.2,4.6,3.1,4.1,2.8-.4,3.8-1.3,4.1-3.4l.7-5.2c.4-2.9,0-3.3-4.6-3.8-11.5-.7-13.1-2.1-11.9-11.3l.4-3c1.4-10.1,4.5-12.8,16.7-14.5,11.6-1.6,15,.1,14,7.3l-.8,5.8-11.1,1.6.3-2.3c.6-4.1.3-4.6-2.6-4.2-3.2.4-3.9,1.2-4.3,4l-.5,3.2c-.4,3,.2,3.5,4,3.8,12.9,1.1,14.2,2.4,12.6,13.3-1.7,11.7-5.3,15.1-17.8,16.9-12.7,1.8-15.4-.1-14-10.2l.6-4,11.6-1.6-.5,3.5ZM406.2,54.9c-.7,4.6-2.2,7.8-4.8,10-2.5,2.1-6.2,3.4-12.8,4.3-12.1,1.7-15.4-.5-14-9.8l5.3-36.9,12.5-1.8-5.3,37.2c-.3,2.1.6,2.9,3,2.6,2.3-.3,3.5-1.4,3.8-3.5l5.3-37.2,12.5-1.8-5.3,36.9ZM426.9,23.2h-.2s-5.9,41-5.9,41l-11.2,1.6,6.9-48.4,19.7-2.8.6,37.3h.2s11.5-39,11.5-39l19.7-2.8-6.9,48.4-11.3,1.6,6.2-40.9h-.2s-13.9,42-13.9,42l-14.3,2-1-40ZM278.9,20.9l-7.1,49.2c-.2,1.5-1.6,2.9-3.1,3.1l-15.5,2.2c-1.5.2-2.6-.8-2.4-2.3l7.1-49.2c.2-1.5,1.6-2.9,3.1-3.1l15.5-2.2c1.5-.2,2.6.8,2.4,2.3ZM266.8,86.1l-18.3,2.6-10.2,1.5c-1.5.2-2.6-.8-2.4-2.3l1.5-10.2,7.5-51.9c.2-1.5-.8-2.6-2.4-2.3l-15.5,2.2c-1.5.2-2.9,1.6-3.1,3.1l-11.9,82.9c-.2,1.5.8,2.6,2.4,2.3l49.6-7c1.5-.2,2.9-1.6,3.1-3.1l2.2-15.4c.2-1.5-.8-2.6-2.4-2.3ZM32.6,62.7l-5.2.7-1.4,2.8-1.2.2,5.8-11.7,1.3-.2,2.5,10.6-1.2.2-.6-2.5ZM32.4,61.8l-1.4-5.8-3.1,6.4,4.5-.6ZM37.7,63.7l4.1-.6v.9c-.1,0-5.4.7-5.4.7l1.6-11.3,1.1-.2-1.5,10.4ZM44.7,62.7l4.1-.6v.9c-.1,0-5.4.7-5.4.7l1.6-11.3,1.1-.2-1.5,10.4ZM62.2,55.5c-.7.7-1.7,1.1-3,1.3l-2.3.3-.7,4.8-1.1.2,1.6-11.3,3.4-.5c1.3-.2,2.2,0,2.7.5.6.5.8,1.2.6,2.2-.1,1-.6,1.8-1.3,2.5ZM62.3,53.2c.1-.8,0-1.3-.4-1.6-.4-.3-1-.4-1.9-.3l-2.3.3-.7,4.6,2.3-.3c1.8-.3,2.8-1.1,3-2.6ZM70.4,59.9l-2.1-4.3-2.1.3-.7,4.7-1.1.2,1.6-11.3,3.4-.5c1.3-.2,2.2,0,2.8.5.6.5.8,1.3.6,2.2-.1.8-.5,1.5-1,2.2-.6.6-1.3,1.1-2.3,1.4l2.2,4.4-1.4.2ZM66.3,55l2.3-.3c.9-.1,1.6-.4,2.1-.9.5-.5.8-1.1.9-1.8.1-.7,0-1.3-.4-1.6s-1-.4-2-.3l-2.3.3-.7,4.7ZM76.4,58.5c-.8-.4-1.4-1-1.7-1.8-.4-.8-.5-1.8-.3-2.9.2-1.1.5-2.1,1.2-3.1.6-.9,1.4-1.7,2.3-2.3.9-.6,1.9-1,3-1.1,1.1-.2,2,0,2.8.3.8.4,1.4,1,1.7,1.8.4.8.5,1.8.3,2.9-.2,1.1-.5,2.1-1.2,3.1-.6.9-1.4,1.7-2.3,2.3-.9.6-1.9,1-3,1.1-1.1.1-2,0-2.8-.3ZM81.7,56.9c.7-.5,1.3-1.1,1.8-1.9.5-.8.8-1.7.9-2.6.1-1,0-1.8-.2-2.4-.3-.7-.7-1.1-1.4-1.4s-1.3-.4-2.2-.3c-.8.1-1.6.4-2.4.9s-1.3,1.1-1.8,1.9c-.5.8-.8,1.6-.9,2.6-.1,1,0,1.8.2,2.4.3.7.7,1.2,1.4,1.4.6.3,1.3.4,2.2.3.8-.1,1.6-.4,2.4-.9ZM94.8,45.4v.9c-.1,0-5.1.7-5.1.7l-.6,4.2,4.2-.6v.9c-.1,0-4.4.6-4.4.6l-.7,5.2-1.1.2,1.6-11.3,6.1-.9ZM97.9,45.9l-.6,4.2,4.3-.6v.9c-.1,0-4.4.6-4.4.6l-.6,4.3,4.8-.7v.9c-.1,0-6.1.8-6.1.8l1.6-11.3,5.9-.8v.9c-.1,0-4.9.7-4.9.7ZM105.1,54.7c-.5-.2-.9-.5-1.2-.9-.3-.4-.4-.9-.3-1.5l1.2-.2c0,.5.2,1,.5,1.3.4.4,1,.5,1.8.4.8-.1,1.4-.4,1.9-.8.5-.5.8-1,.9-1.6,0-.5,0-.9-.2-1.1-.2-.3-.5-.4-.8-.5-.3,0-.8-.2-1.5-.3-.7,0-1.3-.2-1.7-.3s-.8-.4-1-.7c-.3-.4-.3-.9-.2-1.6,0-.6.3-1.1.7-1.6.4-.5.8-.9,1.4-1.3.6-.3,1.2-.6,2-.7,1.1-.1,1.9,0,2.4.4.6.4.8,1,.8,1.8l-1.2.2c0-.5-.2-.8-.6-1.1-.4-.3-.9-.4-1.7-.3-.7,0-1.3.4-1.8.8-.5.4-.8.9-.9,1.6,0,.5,0,.8.2,1.1.2.3.5.4.8.5s.8.2,1.5.3c.7.1,1.3.2,1.7.4.4.1.8.4,1,.7s.3.9.2,1.6c0,.5-.3,1-.6,1.6-.3.5-.8,1-1.4,1.3-.6.4-1.3.6-2,.7-.8.1-1.4,0-1.9-.1ZM114.6,53.4c-.5-.2-.9-.5-1.2-.9s-.4-.9-.3-1.5l1.2-.2c0,.5.2,1,.5,1.3s1,.5,1.8.4c.8-.1,1.4-.4,1.9-.8.5-.5.8-1,.9-1.6,0-.5,0-.9-.2-1.1-.2-.3-.5-.4-.8-.5-.3,0-.8-.2-1.5-.3-.7,0-1.3-.2-1.7-.3s-.8-.4-1-.7-.3-.9-.2-1.6c0-.6.3-1.1.7-1.6.4-.5.8-.9,1.4-1.3.6-.3,1.2-.6,2-.7,1.1-.1,1.9,0,2.4.4.6.4.8,1,.8,1.8l-1.2.2c0-.5-.2-.8-.6-1.1-.4-.3-.9-.4-1.7-.3-.7,0-1.3.4-1.8.8-.5.4-.8,1-.9,1.6,0,.5,0,.8.2,1.1.2.3.5.4.8.5.4,0,.8.2,1.5.3.7.1,1.3.2,1.7.4.4.1.8.4,1,.7.3.4.3.9.2,1.6,0,.5-.3,1-.6,1.6-.3.5-.8,1-1.4,1.3-.6.4-1.3.6-2,.7-.8.1-1.4,0-1.9-.1ZM125.3,41.1l-1.6,11.3-1.1.2,1.6-11.3,1.1-.2ZM128.8,51c-.8-.4-1.4-1-1.7-1.8-.4-.8-.5-1.8-.3-2.9.2-1.1.5-2.1,1.2-3.1.6-.9,1.4-1.7,2.3-2.3.9-.6,1.9-1,3-1.1,1.1-.2,2,0,2.8.3.8.4,1.4,1,1.7,1.8.4.8.5,1.8.3,2.9-.2,1.1-.5,2.1-1.2,3.1s-1.4,1.7-2.3,2.3c-.9.6-1.9,1-3,1.1-1.1.1-2,0-2.8-.3ZM134,49.5c.7-.5,1.3-1.1,1.8-1.9.5-.8.8-1.7,1-2.6.1-1,0-1.8-.2-2.4-.3-.7-.7-1.1-1.4-1.4-.6-.3-1.3-.4-2.2-.3s-1.6.4-2.4.9c-.7.5-1.3,1.1-1.8,1.9-.5.8-.8,1.6-.9,2.6-.1,1,0,1.8.2,2.4.3.7.7,1.2,1.4,1.4.6.3,1.3.4,2.2.3s1.6-.4,2.4-.9ZM148,48.9l-1.1.2-4.9-8.6-1.4,9.5-1.1.2,1.6-11.3,1.1-.2,4.9,8.6,1.4-9.5,1.1-.2-1.6,11.3ZM157.7,44.9l-5.2.7-1.4,2.8-1.2.2,5.8-11.7,1.3-.2,2.5,10.6-1.2.2-.6-2.5ZM157.5,44l-1.4-5.8-3.1,6.4,4.5-.6ZM162.8,45.9l4.1-.6v.9c-.1,0-5.4.7-5.4.7l1.6-11.3,1.1-.2-1.5,10.4ZM170,45.5c-.5-.2-.9-.5-1.2-.9s-.4-.9-.3-1.5l1.2-.2c0,.5.1,1,.5,1.3.4.4,1,.5,1.8.4.8-.1,1.4-.4,1.9-.8s.8-1,.9-1.6c0-.5,0-.9-.2-1.1-.2-.3-.5-.4-.8-.5-.3,0-.8-.2-1.5-.3-.7,0-1.3-.2-1.7-.3s-.8-.4-1-.7-.3-.9-.2-1.6c0-.6.3-1.1.7-1.6.4-.5.8-.9,1.4-1.3.6-.3,1.2-.6,2-.7,1.1-.1,1.9,0,2.4.4.6.4.8,1,.8,1.8l-1.2.2c0-.5-.2-.8-.6-1.1-.4-.3-.9-.4-1.7-.3-.7,0-1.3.4-1.8.8-.5.4-.8,1-.9,1.6,0,.5,0,.8.2,1.1.2.3.5.4.8.5.4,0,.8.2,1.5.3.7.1,1.3.2,1.7.4.4.1.8.4,1,.7s.3.9.2,1.6c0,.5-.3,1-.6,1.6-.3.5-.8,1-1.4,1.3-.6.4-1.3.6-2,.7-.7.1-1.4,0-1.9-.1ZM185.3,32.6l-1,7.1c-.2,1.1,0,1.9.4,2.4.5.5,1.2.6,2.1.5.9-.1,1.7-.5,2.3-1.1.6-.6,1-1.5,1.1-2.6l1-7.1,1.1-.2-1,7.1c-.2,1.4-.7,2.6-1.6,3.4-.9.8-1.9,1.3-3.1,1.5s-2.2,0-2.8-.7c-.7-.6-.9-1.6-.7-3.1l1-7.1,1.1-.2ZM195,42c-.5-.2-.9-.5-1.2-.9-.3-.4-.4-.9-.3-1.5l1.2-.2c0,.5.1,1,.5,1.3.4.4,1,.5,1.8.4.8-.1,1.4-.4,1.9-.8.5-.5.8-1,.9-1.6,0-.5,0-.9-.2-1.1-.2-.3-.5-.4-.8-.5-.3,0-.8-.2-1.5-.3-.7,0-1.3-.2-1.7-.3-.4-.1-.8-.4-1-.7-.3-.4-.3-.9-.2-1.6,0-.6.3-1.1.7-1.6.4-.5.8-.9,1.4-1.3.6-.3,1.2-.6,2-.7,1.1-.1,1.9,0,2.4.4.6.4.8,1,.8,1.8l-1.2.2c0-.5-.2-.8-.6-1.1-.4-.3-.9-.4-1.7-.3-.7,0-1.3.4-1.8.8s-.8,1-.9,1.6c0,.5,0,.8.2,1.1.2.3.5.4.8.5s.8.2,1.5.3c.7.1,1.3.2,1.7.4.4.1.8.4,1,.7.3.4.3.9.2,1.6,0,.5-.3,1-.6,1.6-.3.5-.8,1-1.4,1.3-.6.4-1.3.6-2,.7-.7.1-1.4,0-1.9-.1ZM205.6,30.6l-.6,4.2,4.3-.6v.9c-.1,0-4.4.6-4.4.6l-.6,4.3,4.8-.7v.9c-.1,0-6.1.8-6.1.8l1.6-11.3,5.9-.8v.9c-.1,0-4.9.7-4.9.7Z"/>
</svg>