<?xml version="1.0" encoding="UTF-8"?>
<svg xmlns="http://www.w3.org/2000/svg" baseProfile="tiny" version="1.2" xmlns:xlink="http://www.w3.org/1999/xlink" viewBox="0 0 300 200">
  <defs>
    <linearGradient id="linear-gradient" x1="243.7" y1="10.5" x2="275.9" y2="72.9" gradientUnits="userSpaceOnUse">
      <stop offset="0" stop-color="#a0f"/>
      <stop offset=".2" stop-color="#8e00e7"/>
      <stop offset=".5" stop-color="#6700c6"/>
      <stop offset=".7" stop-color="#4e00b1"/>
      <stop offset=".9" stop-color="#4600aa"/>
    </linearGradient>
  </defs>
  <path d="M291.8,3.7l-6.4,44.3c-.2,1.4-1.5,2.6-2.9,2.8l-14.1,2c-1.4.2-2.3-.8-2.1-2.1l6.4-44.3c.2-1.4,1.5-2.6,2.9-2.8l14.1-2c1.4-.2,2.3.8,2.1,2.1ZM280.8,62.4l-16.7,2.3-9.3,1.3c-1.4.2-2.3-.8-2.1-2.1l1.3-9.2,6.8-46.8c.2-1.4-.8-2.3-2.1-2.1l-14.1,2c-1.4.2-2.7,1.5-2.9,2.8l-10.9,74.7c-.2,1.4.8,2.3,2.1,2.1l45.1-6.3c1.4-.2,2.7-1.5,2.9-2.8l2-13.9c.2-1.4-.8-2.3-2.1-2.1Z" fill="url(#linear-gradient)"/>
  <path d="M16.2,63.5l14.5-2.1-6.6,46.3,14.1-2-1.5,10.2-28.6,4.1,8.1-56.5ZM47.6,69.8c1.2-8.4,6.9-12.3,20.5-14.3,13.5-1.9,18.3.5,17.2,8.9l-4.9,34.4c-1.2,8.4-6.9,12.3-20.6,14.3-13.5,1.9-18.3-.5-17.1-8.9l4.9-34.4ZM70.1,67.3c.3-1.9-.6-2.5-3.4-2.1-2.8.4-3.8,1.1-4.1,3.2l-4.7,33.1c-.3,2,.6,2.5,3.5,2.1,2.7-.4,3.8-1.2,4-3.1l4.7-33.1ZM92.5,52.6l17.1-2.4c14.9-2.1,18.5.2,17,10.8l-1,6.8c-1.2,7.5-3.9,10.8-11,12.9v.2c7.3.4,8.7,1.8,8.1,7.8l-2.2,15.4-13.8,2,2.3-16.2c.4-2.5-1-3.1-5.7-2.4l-2.3.3-2.8,19.5-13.8,2,8.1-56.5ZM102.4,77.9l2.7-.4c4.7-.7,5.9-1.8,6.5-5.7l1.2-8.5c.4-3-.6-4.1-3.7-3.6l-4.2.6-2.5,17.6ZM135.2,46.6l27.9-4-1.5,10.2-13.4,1.9-1.8,12.4,12.4-1.8-1.4,9.6-12.4,1.8-2,14.1,14.5-2.1-1.5,10.2-29,4.1,8.1-56.5ZM52.5,123.9l14.5-2.1-8.1,56.5-14.5,2.1,8.1-56.5ZM74.1,120.8l20.9-3c11.4-1.6,15.5,1.8,14.2,11.4l-1.4,9.8c-2,13.1-6.4,17.3-20.1,19.4l-4.9.7-2.3,16.1-14.5,2.1,8.1-56.5ZM88.5,148.3c2.3-.3,3.4-1.6,3.8-4.6l1.9-13.5c.3-1.9-.4-2.3-3-1.9l-4.2.6-2.9,20.1,4.3-.6ZM123.8,154.8c-.7,4.7-.2,5.3,3.8,4.8,3.4-.5,4.7-1.5,5.1-4l.9-6.1c.5-3.4-.1-3.9-5.7-4.3-14.3-.7-16.2-2.3-14.7-13l.5-3.5c1.7-11.8,5.5-15,20.4-17.1,14.3-2,18.6,0,17.4,8.3l-1,6.8-13.7,2,.4-2.7c.7-4.8.3-5.3-3.3-4.8-3.9.6-4.8,1.4-5.3,4.7l-.5,3.7c-.5,3.5.3,4.1,4.9,4.4,16,1.1,17.5,2.6,15.7,15.3-1.9,13.6-6.4,17.7-21.8,19.9-15.6,2.2-19,0-17.4-11.7l.7-4.7,14.3-2-.6,4.1ZM190.7,145.9c-.8,5.4-2.5,9.1-5.5,11.7-2.9,2.5-7.2,3.9-14.9,5-14.1,2-17.9-.6-16.3-11.4l6.1-43,14.5-2.1-6.2,43.3c-.4,2.5.7,3.4,3.4,3,2.6-.4,4-1.7,4.4-4.1l6.2-43.3,14.5-2.1-6.1,43ZM273.2,102.1c-.7,0-1.4-.1-2-.4-.6-.3-1.2-.6-1.6-1-.4-.4-.8-1-1.1-1.6-.3-.6-.4-1.3-.4-2s.1-1.4.4-2c.3-.6.6-1.1,1.1-1.6.4-.4,1-.8,1.6-1s1.3-.4,2-.4,1.4.1,2,.4,1.2.6,1.6,1,.8,1,1.1,1.6.4,1.3.4,2-.1,1.4-.4,2-.6,1.1-1.1,1.6-1,.8-1.6,1c-.6.3-1.3.4-2,.4ZM273.2,101.6c.6,0,1.2-.1,1.8-.3s1-.5,1.5-.9c.4-.4.7-.9,1-1.4.2-.5.4-1.1.4-1.8s-.1-1.2-.3-1.8c-.2-.5-.5-1-1-1.4-.4-.4-.9-.7-1.4-.9-.6-.2-1.2-.3-1.8-.3s-1.3.1-1.8.3c-.6.2-1,.5-1.4.9-.4.4-.7.9-.9,1.4-.2.5-.3,1.1-.3,1.8s.1,1.2.3,1.8c.2.5.5,1,.9,1.4.4.4.9.7,1.4.9s1.2.3,1.8.3ZM273.3,100.3c-.4,0-.9,0-1.3-.2-.4-.2-.7-.4-1-.7-.3-.3-.5-.6-.7-1-.2-.4-.3-.8-.3-1.3s0-.8.2-1.2c.1-.4.3-.7.6-1,.3-.3.6-.6,1-.7s.9-.3,1.4-.3,1.2.1,1.7.4c.5.3.8.7,1.1,1.2l-1.2.4c0-.2-.2-.3-.3-.5-.1-.1-.3-.2-.4-.3-.1,0-.3-.1-.4-.1-.2,0-.3,0-.4,0-.3,0-.6,0-.9.2-.2.1-.5.3-.6.5s-.3.4-.4.7c0,.3-.1.5-.1.8s0,.7.2.9c.1.3.3.5.5.7.2.2.4.3.6.4s.5.1.7.1.6,0,1-.3c.3-.2.5-.4.7-.7l1.2.4c0,.2-.2.4-.4.6-.2.2-.4.4-.6.5-.2.2-.5.3-.8.4-.3.1-.6.2-1,.2ZM210.8,35.6l-16.3,28.2-8.5-24.7-16,2.3-8.2,56.6,14.6-2.1,4.3-30,6.6,19.7,8.4-1.2,12.7-22.5-4.3,30,14.6-2.1,8.2-56.6-16,2.3ZM243.8,96.2l-16.4,28.4-8.5-24.8-16.1,2.3-8.3,56.9,14.6-2.1,4.3-30.1,6.6,19.8,8.4-1.2,12.7-22.5-4.3,30.1,14.6-2.1,8.3-56.9-16,2.3ZM277.4,112.5c-.4-.3-1.1.3-.7.7,3.1,4.4,5.7,9,6.9,13.7,5.7,23-22.4,36.7-40,44.1-41.2,16.1-87.9,19.5-132,17.6-10.7-.6-21.3-1.6-31.9-3.1-.2,0-.5.1-.5.3,0,.3,0,.5.3.6,50.2,16.1,111.2,16.3,161.3-.5,16-5.6,32-13.6,42.9-26.9,12.8-15.7,10.7-34.9-6.2-46.5h0ZM23.9,40.1l1.3-.2,3.2,11.6-1.7.2-.9-3.4-5.1.7-1.9,3.8-1.7.2,6.7-13ZM25.7,47.2l-1.4-5.4-3.1,6,4.5-.6ZM29.9,51.3l1.7-12.3,1.5-.2-1.5,10.9,6.8-1-.2,1.4-8.3,1.2ZM39.7,49.8l1.7-12.3,1.5-.2-1.5,10.9,6.8-1-.2,1.4-8.3,1.2ZM54.1,47.8l1.7-12.3,5.1-.7c.5,0,1,0,1.4.1.4.2.8.4,1,.7s.5.7.6,1.2c.1.4.1.9,0,1.4,0,.5-.2,1-.5,1.5-.2.5-.5,1-.9,1.4-.4.4-.8.8-1.3,1-.5.3-1,.5-1.5.5l-3.6.5-.6,4.4-1.5.2ZM56.5,41.7l3.6-.5c.3,0,.6-.2.9-.3.3-.2.5-.4.7-.6.2-.3.4-.6.5-.9.1-.3.2-.7.3-1,0-.4,0-.7,0-1,0-.3-.2-.5-.4-.7-.2-.2-.4-.3-.6-.4-.3,0-.5-.1-.8,0l-3.5.5-.7,5.1ZM64.6,46.3l1.7-12.3,5.2-.8c.5,0,1,0,1.4.1.4.2.8.4,1,.7s.5.7.6,1.2c.1.4.1.9,0,1.4,0,.4-.2.8-.4,1.3-.2.4-.4.8-.7,1.2-.3.4-.6.7-.9.9-.3.3-.7.5-1.1.7l2.3,4.3-1.8.3-2.2-4-3.2.5-.6,4.4-1.5.2ZM67,40.2l3.7-.5c.3,0,.6-.2.9-.3.3-.2.5-.4.7-.7.2-.3.4-.6.5-.9.1-.3.2-.7.3-1,0-.3,0-.7,0-1,0-.3-.2-.5-.4-.7-.2-.2-.4-.4-.6-.5-.3,0-.5-.1-.8,0l-3.6.5-.7,5.1ZM80.6,44c-.9.1-1.6,0-2.3-.2-.7-.2-1.2-.6-1.6-1.1s-.7-1.1-.9-1.8c-.2-.7-.2-1.5,0-2.2.1-.8.4-1.6.8-2.4.4-.8.9-1.5,1.5-2.2.6-.7,1.3-1.2,2-1.6.8-.4,1.5-.7,2.4-.8.9-.1,1.6,0,2.3.2.6.3,1.2.7,1.6,1.2.4.5.7,1.1.9,1.8.2.7.2,1.4,0,2.2-.1.8-.4,1.6-.8,2.4s-.9,1.5-1.5,2.2c-.6.6-1.3,1.2-2,1.6s-1.5.7-2.4.8ZM77.3,38.4c0,.6,0,1.2,0,1.8.1.6.3,1,.6,1.4.3.4.7.7,1.2.9.5.2,1,.2,1.7.2.7,0,1.3-.3,1.8-.7s1-.8,1.5-1.3c.4-.5.8-1.1,1-1.7.3-.6.4-1.2.5-1.8,0-.6,0-1.2,0-1.8-.1-.6-.3-1-.6-1.4-.3-.4-.7-.7-1.2-.9-.5-.2-1-.2-1.6-.2-.7,0-1.3.3-1.8.7s-1,.8-1.5,1.3c-.4.5-.8,1.1-1.1,1.7-.3.6-.5,1.2-.5,1.8ZM88.5,42.8l1.7-12.3,8.1-1.2-.2,1.4-6.5.9-.6,4.1,5.5-.8-.2,1.3-5.5.8-.8,5.5-1.5.2ZM106.6,38.8l-.2,1.4-8.3,1.2,1.7-12.3,8.1-1.2-.2,1.4-6.6.9-.6,4,5.7-.8-.2,1.3-5.7.8-.6,4.2,6.7-1ZM117.2,29.1c-.1-.1-.3-.3-.5-.4s-.4-.2-.7-.3c-.3,0-.6-.1-.9-.2-.3,0-.7,0-1,0-1,.1-1.7.4-2.2.8-.5.4-.8.9-.9,1.6,0,.3,0,.6,0,.8s.3.4.5.5c.2.1.6.2.9.3.4,0,.8.1,1.4.2.6,0,1.2.1,1.6.2.5.1.9.3,1.2.5.3.2.6.5.7.9.1.4.2.8,0,1.4,0,.6-.3,1.1-.6,1.6-.3.5-.7.9-1.1,1.2-.4.3-.9.6-1.5.8-.6.2-1.2.4-1.8.5-.9.1-1.8.1-2.6,0-.8-.2-1.5-.5-2.1-1l.9-1.4c.2.2.4.3.6.5.3.2.6.3.9.4.3.1.7.2,1.1.2.4,0,.9,0,1.3,0,.9-.1,1.6-.4,2.1-.8.5-.4.8-.9.9-1.5,0-.3,0-.6-.1-.8-.1-.2-.3-.4-.6-.5-.3-.1-.6-.2-1-.3s-.9-.1-1.4-.2c-.6,0-1.1-.1-1.6-.2-.4-.1-.8-.3-1.1-.5-.3-.2-.5-.5-.6-.8s-.1-.7,0-1.2c0-.6.3-1.1.5-1.6.3-.5.6-.9,1.1-1.3.4-.4.9-.7,1.5-.9.6-.2,1.2-.4,1.8-.5.8-.1,1.6-.1,2.2,0,.6.2,1.2.4,1.6.8l-.9,1.4ZM127.6,27.6c-.1-.1-.3-.3-.5-.4-.2-.1-.4-.2-.7-.3-.3,0-.6-.1-.9-.2-.3,0-.7,0-1,0-1,.1-1.7.4-2.2.8-.5.4-.8.9-.9,1.6,0,.3,0,.6,0,.8,0,.2.3.4.5.5.2.1.6.2.9.3s.8.1,1.4.2c.6,0,1.2.1,1.6.2.5.1.9.3,1.2.5.3.2.6.5.7.9.1.4.2.8,0,1.4,0,.6-.3,1.1-.6,1.6-.3.5-.7.9-1.1,1.2-.4.3-.9.6-1.5.8-.6.2-1.2.4-1.8.5-.9.1-1.8.1-2.6,0-.8-.2-1.5-.5-2.1-1l.9-1.4c.2.2.4.3.6.5.3.2.6.3.9.4s.7.2,1.1.2.9,0,1.3,0c.9-.1,1.6-.4,2.1-.8.5-.4.8-.9.9-1.5,0-.3,0-.6-.1-.8-.1-.2-.3-.4-.6-.5-.3-.1-.6-.2-1-.3-.4,0-.9-.1-1.4-.2-.6,0-1.1-.1-1.6-.2-.4-.1-.8-.3-1.1-.5-.3-.2-.5-.5-.6-.8-.1-.3-.1-.7,0-1.2,0-.6.3-1.1.5-1.6.3-.5.6-.9,1.1-1.3s.9-.7,1.5-.9c.6-.2,1.2-.4,1.8-.5.8-.1,1.6,0,2.2,0s1.2.4,1.6.8l-.9,1.4ZM129.5,36.9l1.7-12.3,1.5-.2-1.7,12.3-1.5.2ZM138.9,35.6c-.9.1-1.6,0-2.3-.2-.7-.3-1.2-.6-1.6-1.1-.4-.5-.7-1.1-.9-1.8-.2-.7-.2-1.5,0-2.2.1-.8.4-1.6.8-2.4.4-.8.9-1.5,1.5-2.2.6-.7,1.3-1.2,2-1.6.8-.4,1.5-.7,2.4-.8.9-.1,1.6,0,2.3.2.6.3,1.2.7,1.6,1.2.4.5.7,1.1.9,1.8.2.7.2,1.4,0,2.2-.1.8-.4,1.6-.8,2.4s-.9,1.5-1.5,2.2c-.6.6-1.3,1.2-2,1.6-.8.4-1.5.7-2.4.8ZM135.6,30c0,.6,0,1.2,0,1.8.1.6.3,1,.6,1.4.3.4.7.7,1.2.9.5.2,1,.2,1.7.1.7,0,1.3-.3,1.8-.7.6-.4,1-.8,1.5-1.3.4-.5.8-1.1,1-1.7.3-.6.4-1.2.5-1.8,0-.6,0-1.2,0-1.8-.1-.6-.3-1-.6-1.4-.3-.4-.7-.7-1.2-.9s-1-.2-1.6-.2c-.7,0-1.3.3-1.8.7-.6.4-1,.8-1.5,1.3-.4.5-.8,1.1-1.1,1.7-.3.6-.5,1.2-.5,1.8ZM149.6,24.8l-1.3,9.4-1.5.2,1.7-12.3,1.2-.2,6.2,8.5,1.4-9.6,1.5-.2-1.7,12.3-1.3.2-6.1-8.3ZM165.3,19.7l1.3-.2,3.2,11.6-1.7.2-.9-3.4-5.1.7-1.9,3.8-1.7.2,6.7-13ZM167.1,26.7l-1.4-5.4-3.1,6,4.5-.6ZM171.3,30.9l1.7-12.3,1.5-.2-1.5,10.9,6.8-1-.2,1.4-8.3,1.2ZM190.1,18.6c-.1-.1-.3-.3-.5-.4s-.4-.2-.7-.3c-.3,0-.6-.1-.9-.2s-.7,0-1,0c-1,.1-1.7.4-2.2.8-.5.4-.8.9-.9,1.6,0,.3,0,.6,0,.8s.3.4.5.5c.2.1.6.2.9.3.4,0,.8.1,1.4.2.6,0,1.2.1,1.6.2s.9.3,1.2.5c.3.2.6.5.7.9.1.4.2.8,0,1.4,0,.6-.3,1.1-.6,1.6-.3.5-.7.9-1.1,1.2-.4.3-.9.6-1.5.8s-1.2.4-1.8.5c-.9.1-1.8.1-2.6,0s-1.5-.5-2.1-1l.9-1.4c.2.2.4.3.6.5.3.2.6.3.9.4.3.1.7.2,1.1.2.4,0,.9,0,1.3,0,.9-.1,1.6-.4,2.1-.8.5-.4.8-.9.9-1.5,0-.3,0-.6-.1-.8-.1-.2-.3-.4-.6-.5-.3-.1-.6-.2-1-.3s-.9-.1-1.4-.2c-.6,0-1.1-.1-1.6-.2-.4-.1-.8-.3-1.1-.5-.3-.2-.5-.5-.6-.8s-.1-.7,0-1.2c0-.6.3-1.1.5-1.6.3-.5.6-.9,1.1-1.3.4-.4.9-.7,1.5-.9.6-.2,1.2-.4,1.8-.5.8-.1,1.6,0,2.2,0s1.2.4,1.6.8l-.9,1.4ZM201.6,25.2c.7-.1,1.3-.3,1.8-.7.5-.3.9-.8,1.3-1.2.3-.5.6-1,.8-1.6.2-.6.3-1.2.4-1.8l.9-6.2,1.5-.2-.9,6.2c-.1.8-.3,1.6-.6,2.4-.3.8-.7,1.5-1.2,2.1-.5.6-1.1,1.2-1.8,1.6-.7.4-1.5.7-2.5.8-1,.1-1.8,0-2.4-.2-.6-.2-1.1-.6-1.4-1.1-.3-.5-.5-1.1-.6-1.8,0-.7,0-1.5,0-2.3l.9-6.2,1.5-.2-.9,6.2c0,.6-.1,1.2,0,1.7,0,.6.2,1,.4,1.4s.5.7,1,.9c.4.2,1,.3,1.7.2ZM217.7,14.6c-.1-.1-.3-.3-.5-.4-.2-.1-.4-.2-.7-.3-.3,0-.6-.1-.9-.2s-.7,0-1,0c-1,.1-1.7.4-2.2.8-.5.4-.8.9-.9,1.6,0,.3,0,.6,0,.8s.3.4.5.5c.2.1.6.2.9.3.4,0,.8.1,1.4.2.6,0,1.2.1,1.6.2s.9.3,1.2.5c.3.2.6.5.7.9.1.4.2.8,0,1.4,0,.6-.3,1.1-.6,1.6-.3.5-.7.9-1.1,1.2-.4.3-.9.6-1.5.8-.6.2-1.2.4-1.8.5-.9.1-1.8.1-2.6,0-.8-.2-1.5-.5-2.1-1l.9-1.4c.2.2.4.3.6.5.3.2.6.3.9.4.3.1.7.2,1.1.2.4,0,.9,0,1.3,0,.9-.1,1.6-.4,2.1-.8.5-.4.8-.9.9-1.5,0-.3,0-.6-.1-.8-.1-.2-.3-.4-.6-.5-.3-.1-.6-.2-1-.3-.4,0-.9-.1-1.4-.2-.6,0-1.1-.1-1.6-.2-.4-.1-.8-.3-1.1-.5-.3-.2-.5-.5-.6-.8-.1-.3-.1-.7,0-1.2,0-.6.3-1.1.5-1.6s.6-.9,1.1-1.3c.4-.4.9-.7,1.5-.9s1.2-.4,1.8-.5c.8-.1,1.6,0,2.2,0s1.2.4,1.6.8l-.9,1.4ZM228.1,21.3l-.2,1.4-8.3,1.2,1.7-12.3,8.1-1.2-.2,1.4-6.6.9-.6,4,5.7-.8-.2,1.3-5.7.8-.6,4.2,6.7-1ZM10.1,120" fill="#322346"/>
</svg>