<?xml version="1.0" encoding="UTF-8"?>
<svg xmlns="http://www.w3.org/2000/svg" version="1.1" xmlns:xlink="http://www.w3.org/1999/xlink" viewBox="0 0 150 70">
  <defs>
    <style>
      .cls-1 {
        fill: url(#linear-gradient);
        stroke-width: 0px;
      }
    </style>
    <linearGradient id="linear-gradient" x1="2.1" y1="35" x2="147.9" y2="35" gradientUnits="userSpaceOnUse">
      <stop offset="0" stop-color="#a0f"/>
      <stop offset="1" stop-color="#4600aa"/>
    </linearGradient>
  </defs>
  <path class="cls-1" d="M96.8,25.9c5.7,7.7,6.4,17,1.6,23.2-6.1,7.8-16.6,10.5-25.6,6.4-14.8-6.7-20.7-24.5-12.8-38.6,2.6-4.7,2.7-4.8-2.4-6.9-4.3-1.8-8.8-3-13.4-3.8-14-2.6-27.4-1.7-39.5,6.9-.7.5-1.5,1.3-2.7-.2C8.1,6.5,15.6,3,24.1,1.4c12.8-2.3,25,.2,37,4.7,4.2,1.6,8.2,2.7,12.9,1.5,4.5-1.2,9.2-.7,13.8.3,14.8,3.2,27.3,10.7,38,21.1,6.3,6.1,10.8,13.5,15.4,21.1,1.7-1.6,2.4-4.4,5.1-3,2.2,1.2,1.5,3.4,1.2,5.2-.7,4.6-1.2,9.2-2.3,13.7-.9,3.9-2.8,4.4-5.4,1.2-6.5-7.8-13.9-14.5-21.6-21.1-1-.9-2.8-1.5-1.7-4,7.1,3.4,12.1,9.5,18.6,13.5-10.9-23.3-28.5-37.8-54.2-41.7,5.5,3.6,11.5,6.3,15.6,11.9ZM77.5,18.8c-8.1-4.1-12.5-1.9-14.3,7-1.8,8.7,3.3,19.4,11.2,23.5,6.6,3.4,14.6,1.9,18.9-3.5,3.7-4.7,2.7-12.6-2.4-17.9-1.5-1.5-3.1-2.9-4.9-4.1-2.4-1.6-4.9-3.1-7.3-4.6,0,0,0,.1,0,.2-.3-.2-.7-.4-1-.5Z"/>
</svg>