<svg version="1.1" id="Layer_1" xmlns="http://www.w3.org/2000/svg" xmlns:xlink="http://www.w3.org/1999/xlink" x="0px" y="0px"
	 viewBox="0 0 1080 1500" style="enable-background:new 0 0 1080 1500;" xml:space="preserve">
<style type="text/css">
	.st0{fill:none;stroke:rgba(72, 0, 172, 0.1);stroke-width:20;stroke-miterlimit:100%;  stroke-linecap: round;}
</style>
<path class="st0" d="M1059.9,66L954.8,795.7c-3.2,22.4-24.1,43.1-46.7,46.3l-230.6,32.7c-22.6,3.2-38.3-12.4-35-34.7l105.1-729.7
	c3.2-22.4,24.1-43.1,46.7-46.3l230.6-32.7C1047.5,28.1,1063.2,43.6,1059.9,66z M880.5,1033.4l-271.4,38.5L457,1093.4
	c-22.6,3.2-38.3-12.4-35-34.7l21.7-150.8l111-770.3c3.2-22.4-12.5-37.9-35-34.7l-230.6,32.7c-22.6,3.2-43.5,23.9-46.7,46.3
	L65.1,1412.6c-3.2,22.4,12.5,37.9,35,34.7l735.8-104.2c22.6-3.2,43.5-23.9,46.7-46.3l32.9-228.6
	C918.8,1045.8,903.1,1030.2,880.5,1033.4z"/>
<!-- <animate attributeName="stroke-dasharray" attributeType="XML" from="1000" to="2000" dur="20s" repeatCount="indefinite"/> --> </svg>

