<svg x="0px" y="0px" viewBox="0 0 78 111" xmlns="http://www.w3.org/2000/svg">
<linearGradient id="li-logo-color" gradientUnits="userSpaceOnUse" x1="51.3344" y1="16.2461" x2="74.747" y2="57.4968">
  <stop offset="0" style="stop-color:#AA00FF;">
    <animate attributeName="stop-color" values="#AA00FF;#8F00E8;#6700C6;#4F00B2;#4600AA;#AA00FF" dur="5s" repeatCount="indefinite"/>
  </stop>

  <stop offset="1" style="stop-color:#4600AA;">
    <animate attributeName="stop-color" values="#4600AA;#AA00FF;#8F00E8;#6700C6;#4F00B2;#4600AA" dur="5s" repeatCount="indefinite"/>
  </stop>
</linearGradient>
<path id="i-logo" style="fill:url(#li-logo-color);" d="M77.2,3.9l-8.1,56
c-0.2,1.7-1.9,3.3-3.6,3.6l-17.7,2.5c-1.7,0.2-2.9-0.9-2.7-2.7l8.1-56c0.2-1.7,1.9-3.3,3.6-3.6l17.7-2.5C76.2,0.9,77.4,2.1,77.2,3.9
z"></path>
<path id="l-logo" style="fill:url(#li-logo-color);" d="M63.4,78.1L42.6,81l-11.7,1.7
c-1.7,0.2-2.9-0.9-2.7-2.7l1.7-11.6l8.5-59.1c0.2-1.7-1-2.9-2.7-2.7L18,9.2c-1.7,0.2-3.3,1.8-3.6,3.6L0.8,107.1
c-0.2,1.7,1,2.9,2.7,2.7l56.4-8c1.7-0.2,3.3-1.8,3.6-3.6l2.5-17.5C66.3,79,65.1,77.8,63.4,78.1z"></path>
</svg>
