<svg x="0px" y="0px" viewBox="0 0 45 45" xmlns="http://www.w3.org/2000/svg">
<linearGradient id="play" gradientUnits="userSpaceOnUse" x1="0" y1="22.5" x2="45" y2="22.5">
	<stop  offset="0" style="stop-color:#AA00FF"/>
	<stop  offset="1" style="stop-color:#4600AA"/>
</linearGradient>
<path id="play" style="fill:url(#play);" d="M18.3,12.1l14.3,8.5
	c1.5,0.9,1.5,3,0,3.9l-14.3,8.5c-1.5,0.9-3.4-0.2-3.4-2V14C14.9,12.3,16.8,11.2,18.3,12.1z M22.5,4C12.3,4,4,12.3,4,22.5
	C4,32.7,12.3,41,22.5,41C32.7,41,41,32.7,41,22.5C41,12.3,32.7,4,22.5,4 M22.5,0C34.9,0,45,10.1,45,22.5C45,34.9,34.9,45,22.5,45
	C10.1,45,0,34.9,0,22.5C0,10.1,10.1,0,22.5,0L22.5,0z"/>
</svg>