<?xml version="1.0" encoding="UTF-8"?>
<svg xmlns="http://www.w3.org/2000/svg" version="1.1" viewBox="0 0 500 273.3">
  <defs>
    <style>
      .cls-1, .cls-2 {
        fill: none;
        stroke: #a0f;
        stroke-miterlimit: 10;
      }

      .cls-2 {
        opacity: .5;
      }
    </style>
  </defs>
    <path class="cls-1" d="M138.5,87.3h22.8l-17.2,80.9h22.2l-3.8,17.7h-44.9l21-98.6Z"/>
    <path class="cls-1" d="M182.6,106.6c3.1-14.6,12.6-20.3,34.2-20.3s25.6,4.1,25.6,14.3-.1,4-.6,5.9l-12.9,60.2c-3.1,14.6-12.4,20.3-34,20.3s-25.7-4.1-25.7-14.3.3-3.8.7-5.9l12.7-60.2ZM217.8,107.7c.1-.4.1-1,.1-1.8-.1-2.1-1.5-2.8-5-2.8s-6.2,1-6.9,4.6l-12.3,57.8c-.1.6-.1,1.2-.1,1.8,0,2.1,1.5,2.8,5.3,2.8s5.9-1.2,6.7-4.6l12.3-57.8Z"/>
    <path class="cls-1" d="M299.5,164.5c-3.8,17.7-10.9,22.5-34,22.5s-26.3-4-26.3-14.3.3-3.8.7-5.9l12.7-60.2c3.1-14.8,12.6-20.3,34.4-20.3s25,4.1,25,14.9-.3,5.5-.9,8.3l-2.1,9.8h-22l2.2-10.3c.1-.9.3-1.9.3-2.4,0-2.5-1.8-3.4-6.2-3.4s-6.7,1.3-7.7,6.2l-12.1,57.1c-.1.4-.1.7-.1.9-.1,1.9,1.8,2.8,5.8,2.8s7.2-1,7.7-3.3l3.4-15.5h-7.1l4-18.5h29l-6.7,31.6Z"/>
    <path class="cls-1" d="M322.7,106.6c3.1-14.6,12.6-20.3,34.2-20.3s25.6,4.1,25.6,14.3-.1,4-.6,5.9l-12.9,60.2c-3.1,14.6-12.4,20.3-34,20.3s-25.7-4.1-25.7-14.3.3-3.8.7-5.9l12.7-60.2ZM357.9,107.7c.1-.4.1-1,.1-1.8-.1-2.1-1.5-2.8-5-2.8s-6.2,1-6.9,4.6l-12.3,57.8c-.1.6-.1,1.2-.1,1.8,0,2.1,1.5,2.8,5.3,2.8s5.9-1.2,6.7-4.6l12.3-57.8Z"/>
  <rect class="cls-2" x="38.2" y="26.8" width="423.5" height="219.7" rx="20.4" ry="20.4"/>
</svg>